<svg width="13" height="13" viewBox="0 0 13 13" fill="none" xmlns="http://www.w3.org/2000/svg">
<path id="Exclude" fill-rule="evenodd" clip-rule="evenodd" d="M0 6.5C0 2.91015 2.91015 0 6.5 0C10.0899 0 13 2.91015 13 6.5C13 10.0899 10.0899 13 6.5 13C2.91015 13 0 10.0899 0 6.5ZM7.49805 3.9C7.49805 3.34772 7.05033 2.9 6.49805 2.9C5.94576 2.9 5.49805 3.34772 5.49805 3.9V6.68501L5.25594 6.44289C4.86541 6.05237 4.23225 6.05237 3.84172 6.44289C3.4512 6.83342 3.4512 7.46658 3.84172 7.85711L5.73515 9.75053C5.74303 9.75842 5.75101 9.76616 5.75908 9.77375C5.94196 9.97422 6.20531 10.1 6.49805 10.1C6.78575 10.1 7.04507 9.9785 7.22751 9.78402C7.23937 9.77317 7.25103 9.76201 7.26251 9.75053L9.15594 7.85711C9.54646 7.46658 9.54646 6.83342 9.15594 6.44289C8.76541 6.05237 8.13225 6.05237 7.74172 6.44289L7.49805 6.68657V3.9Z" fill="#FF8201"/>
</svg>
