<svg width="13" height="13" viewBox="0 0 13 13" fill="none" xmlns="http://www.w3.org/2000/svg">
<path id="Exclude" fill-rule="evenodd" clip-rule="evenodd" d="M0 6.5C0 2.91015 2.91015 0 6.5 0C10.0899 0 13 2.91015 13 6.5C13 10.0899 10.0899 13 6.5 13C2.91015 13 0 10.0899 0 6.5ZM5.49961 9.1C5.49961 9.65228 5.94732 10.1 6.49961 10.1C7.05189 10.1 7.49961 9.65228 7.49961 9.1L7.49961 6.31421L7.7425 6.55711C8.13303 6.94763 8.76619 6.94763 9.15672 6.55711C9.54724 6.16658 9.54724 5.53342 9.15672 5.14289L7.26329 3.24947C7.25361 3.23978 7.24379 3.23032 7.23383 3.22109C7.05116 3.02363 6.78982 2.9 6.49961 2.9C6.2094 2.9 5.94807 3.02362 5.7654 3.22107C5.75544 3.23032 5.74562 3.23978 5.73593 3.24947L3.8425 5.14289C3.45198 5.53342 3.45198 6.16658 3.8425 6.55711C4.23303 6.94763 4.86619 6.94763 5.25672 6.55711L5.49961 6.31421L5.49961 9.1Z" fill="#323232"/>
</svg>
