<svg width="24" height="24" viewBox="0 0 24 24" fill="none" xmlns="http://www.w3.org/2000/svg">
<g id="Location / undefined / Glyph: undefined">
<path id="Vector" d="M18.1573 16.8819L16.9703 18.0558C16.0954 18.9144 14.9603 20.0184 13.5644 21.3679C12.6922 22.2113 11.3084 22.2112 10.4363 21.3677L6.94515 17.9718C6.50639 17.541 6.13912 17.1777 5.84328 16.8819C2.44287 13.4815 2.44287 7.9683 5.84328 4.56789C9.24369 1.16748 14.7569 1.16748 18.1573 4.56789C21.5577 7.9683 21.5577 13.4815 18.1573 16.8819ZM14.5005 10.9996C14.5005 9.61875 13.3811 8.49936 12.0003 8.49936C10.6195 8.49936 9.50007 9.61875 9.50007 10.9996C9.50007 12.3804 10.6195 13.4998 12.0003 13.4998C13.3811 13.4998 14.5005 12.3804 14.5005 10.9996Z" fill="#858585"/>
</g>
</svg>
