<svg width="8" height="8" viewBox="0 0 8 8" fill="none" xmlns="http://www.w3.org/2000/svg">
<g id="local_shipping" clip-path="url(#clip0_296_988)">
<path id="Vector" d="M6.66659 2.66634H5.66659V1.33301H0.999919C0.633252 1.33301 0.333252 1.63301 0.333252 1.99967V5.66634H0.999919C0.999919 6.21967 1.44659 6.66634 1.99992 6.66634C2.55325 6.66634 2.99992 6.21967 2.99992 5.66634H4.99992C4.99992 6.21967 5.44659 6.66634 5.99992 6.66634C6.55325 6.66634 6.99992 6.21967 6.99992 5.66634H7.66659V3.99967L6.66659 2.66634ZM1.99992 6.16634C1.72325 6.16634 1.49992 5.94301 1.49992 5.66634C1.49992 5.38967 1.72325 5.16634 1.99992 5.16634C2.27659 5.16634 2.49992 5.38967 2.49992 5.66634C2.49992 5.94301 2.27659 6.16634 1.99992 6.16634ZM6.49992 3.16634L7.15325 3.99967H5.66659V3.16634H6.49992ZM5.99992 6.16634C5.72325 6.16634 5.49992 5.94301 5.49992 5.66634C5.49992 5.38967 5.72325 5.16634 5.99992 5.16634C6.27659 5.16634 6.49992 5.38967 6.49992 5.66634C6.49992 5.94301 6.27659 6.16634 5.99992 6.16634Z" fill="white"/>
</g>
<defs>
<clipPath id="clip0_296_988">
<rect width="8" height="8" fill="white"/>
</clipPath>
</defs>
</svg>
