<svg width="135" height="267" viewBox="0 0 135 267" fill="none" xmlns="http://www.w3.org/2000/svg">
<g id="Path">
<path id="Path 4" d="M27.9121 25.1621L3 66.9365L71.3291 108.556L18.7109 189.749L111.718 246.409" stroke="#545454" stroke-width="5" stroke-linecap="round" stroke-linejoin="round"/>
<g id="ic_Pin">
<g id="shadow" filter="url(#filter0_f_18_1097)">
<rect x="100.579" y="247.667" width="21.6667" height="8.33333" rx="3.5" fill="#B3B3B3" fill-opacity="0.8"/>
</g>
<g id="Oval" filter="url(#filter1_d_18_1097)">
<path fill-rule="evenodd" clip-rule="evenodd" d="M111.599 247.667C113.224 247.667 120.964 237.946 122.873 234.85C125.807 230.09 127.618 227.274 127.618 222.02C127.618 213.172 120.446 206 111.599 206C102.751 206 95.5791 213.172 95.5791 222.02C95.5791 227.302 97.2575 230.099 100.182 234.85C102.22 238.161 109.973 247.667 111.599 247.667Z" fill="#F52D56"/>
<path d="M111.599 248.667C111.924 248.667 112.212 248.553 112.413 248.454C112.631 248.347 112.85 248.205 113.063 248.05C113.488 247.738 113.969 247.309 114.476 246.815C115.493 245.823 116.697 244.483 117.894 243.064C120.282 240.234 122.731 236.986 123.724 235.375C123.803 235.248 123.88 235.122 123.957 234.997C126.753 230.465 128.618 227.442 128.618 222.02C128.618 212.62 120.998 205 111.599 205C102.199 205 94.5791 212.62 94.5791 222.02C94.5791 227.606 96.4004 230.614 99.33 235.374C100.39 237.097 102.878 240.348 105.286 243.152C106.494 244.558 107.704 245.877 108.725 246.853C109.234 247.339 109.716 247.759 110.142 248.064C110.355 248.217 110.575 248.356 110.792 248.46C110.993 248.557 111.278 248.667 111.599 248.667Z" stroke="white" stroke-width="2"/>
</g>
<path id="Path_2" fill-rule="evenodd" clip-rule="evenodd" d="M111.599 230.029C116.022 230.029 119.608 226.443 119.608 222.02C119.608 217.596 116.022 214.01 111.599 214.01C107.175 214.01 103.589 217.596 103.589 222.02C103.589 226.443 107.175 230.029 111.599 230.029Z" fill="white"/>
</g>
<g id="Current location">
<g id="Oval_2" filter="url(#filter2_d_18_1097)">
<path fill-rule="evenodd" clip-rule="evenodd" d="M28.5791 44C39.6248 44 48.5791 35.0457 48.5791 24C48.5791 12.9543 39.6248 4 28.5791 4C17.5334 4 8.5791 12.9543 8.5791 24C8.5791 35.0457 17.5334 44 28.5791 44Z" fill="#FF8201"/>
<path fill-rule="evenodd" clip-rule="evenodd" d="M28.5791 44C39.6248 44 48.5791 35.0457 48.5791 24C48.5791 12.9543 39.6248 4 28.5791 4C17.5334 4 8.5791 12.9543 8.5791 24C8.5791 35.0457 17.5334 44 28.5791 44Z" stroke="white" stroke-width="3"/>
</g>
<path id="Oval_3" fill-rule="evenodd" clip-rule="evenodd" d="M28.5791 32.7724C33.4237 32.7724 37.351 28.845 37.351 24.0004C37.351 19.1558 33.4237 15.2285 28.5791 15.2285C23.7345 15.2285 19.8071 19.1558 19.8071 24.0004C19.8071 28.845 23.7345 32.7724 28.5791 32.7724Z" fill="white"/>
</g>
</g>
<defs>
<filter id="filter0_f_18_1097" x="89.706" y="236.794" width="43.4128" height="30.0793" filterUnits="userSpaceOnUse" color-interpolation-filters="sRGB">
<feFlood flood-opacity="0" result="BackgroundImageFix"/>
<feBlend mode="normal" in="SourceGraphic" in2="BackgroundImageFix" result="shape"/>
<feGaussianBlur stdDeviation="5.43656" result="effect1_foregroundBlur_18_1097"/>
</filter>
<filter id="filter1_d_18_1097" x="88.5791" y="204" width="46.0391" height="55.667" filterUnits="userSpaceOnUse" color-interpolation-filters="sRGB">
<feFlood flood-opacity="0" result="BackgroundImageFix"/>
<feColorMatrix in="SourceAlpha" type="matrix" values="0 0 0 0 0 0 0 0 0 0 0 0 0 0 0 0 0 0 127 0" result="hardAlpha"/>
<feOffset dy="5"/>
<feGaussianBlur stdDeviation="2.5"/>
<feColorMatrix type="matrix" values="0 0 0 0 0 0 0 0 0 0 0 0 0 0 0 0 0 0 0.2 0"/>
<feBlend mode="normal" in2="BackgroundImageFix" result="effect1_dropShadow_18_1097"/>
<feBlend mode="normal" in="SourceGraphic" in2="effect1_dropShadow_18_1097" result="shape"/>
</filter>
<filter id="filter2_d_18_1097" x="3.0791" y="0.5" width="51" height="51" filterUnits="userSpaceOnUse" color-interpolation-filters="sRGB">
<feFlood flood-opacity="0" result="BackgroundImageFix"/>
<feColorMatrix in="SourceAlpha" type="matrix" values="0 0 0 0 0 0 0 0 0 0 0 0 0 0 0 0 0 0 127 0" result="hardAlpha"/>
<feOffset dy="2"/>
<feGaussianBlur stdDeviation="2"/>
<feColorMatrix type="matrix" values="0 0 0 0 0 0 0 0 0 0 0 0 0 0 0 0 0 0 0.1 0"/>
<feBlend mode="normal" in2="BackgroundImageFix" result="effect1_dropShadow_18_1097"/>
<feBlend mode="normal" in="SourceGraphic" in2="effect1_dropShadow_18_1097" result="shape"/>
</filter>
</defs>
</svg>
