<svg width="24" height="25" viewBox="0 0 24 25" fill="none" xmlns="http://www.w3.org/2000/svg">
<g id="Menu/Settings">
<path id="Vector" d="M11.9999 14.8465C13.2959 14.8465 14.3465 13.7959 14.3465 12.4999C14.3465 11.2039 13.2959 10.1533 11.9999 10.1533C10.7039 10.1533 9.65332 11.2039 9.65332 12.4999C9.65332 13.7959 10.7039 14.8465 11.9999 14.8465Z" stroke="black" stroke-opacity="0.7" stroke-width="2" stroke-linecap="round" stroke-linejoin="round"/>
<path id="Vector_2" d="M18.0545 14.9545C17.9456 15.2013 17.9131 15.4751 17.9613 15.7405C18.0094 16.0059 18.1359 16.2508 18.3245 16.4436L18.3736 16.4927C18.5258 16.6447 18.6465 16.8252 18.7288 17.0238C18.8112 17.2225 18.8536 17.4354 18.8536 17.6505C18.8536 17.8655 18.8112 18.0784 18.7288 18.2771C18.6465 18.4757 18.5258 18.6562 18.3736 18.8082C18.2217 18.9603 18.0412 19.081 17.8425 19.1634C17.6439 19.2457 17.431 19.2881 17.2159 19.2881C17.0009 19.2881 16.7879 19.2457 16.5893 19.1634C16.3906 19.081 16.2102 18.9603 16.0582 18.8082L16.0091 18.7591C15.8163 18.5705 15.5714 18.4439 15.3059 18.3958C15.0405 18.3477 14.7668 18.3802 14.52 18.4891C14.278 18.5928 14.0716 18.765 13.9263 18.9845C13.7809 19.204 13.7029 19.4613 13.7018 19.7245V19.8636C13.7018 20.2976 13.5294 20.7138 13.2225 21.0207C12.9157 21.3276 12.4994 21.5 12.0655 21.5C11.6315 21.5 11.2152 21.3276 10.9084 21.0207C10.6015 20.7138 10.4291 20.2976 10.4291 19.8636V19.79C10.4228 19.5192 10.3351 19.2565 10.1775 19.0362C10.0199 18.8159 9.79969 18.6481 9.54545 18.5545C9.29868 18.4456 9.02493 18.4131 8.75952 18.4613C8.4941 18.5094 8.24919 18.6359 8.05636 18.8245L8.00727 18.8736C7.8553 19.0258 7.67483 19.1465 7.47617 19.2288C7.27752 19.3112 7.06459 19.3536 6.84955 19.3536C6.6345 19.3536 6.42157 19.3112 6.22292 19.2288C6.02426 19.1465 5.84379 19.0258 5.69182 18.8736C5.53967 18.7217 5.41898 18.5412 5.33663 18.3425C5.25428 18.1439 5.21189 17.931 5.21189 17.7159C5.21189 17.5009 5.25428 17.2879 5.33663 17.0893C5.41898 16.8906 5.53967 16.7102 5.69182 16.5582L5.74091 16.5091C5.92953 16.3163 6.05606 16.0714 6.10419 15.8059C6.15231 15.5405 6.11982 15.2668 6.01091 15.02C5.90719 14.778 5.73498 14.5716 5.51547 14.4263C5.29596 14.2809 5.03873 14.2029 4.77545 14.2018H4.63636C4.20237 14.2018 3.78616 14.0294 3.47928 13.7225C3.1724 13.4157 3 12.9994 3 12.5655C3 12.1315 3.1724 11.7152 3.47928 11.4084C3.78616 11.1015 4.20237 10.9291 4.63636 10.9291H4.71C4.98081 10.9228 5.24346 10.8351 5.46379 10.6775C5.68412 10.5199 5.85195 10.2997 5.94545 10.0455C6.05437 9.79868 6.08686 9.52493 6.03873 9.25952C5.99061 8.9941 5.86408 8.74919 5.67545 8.55636L5.62636 8.50727C5.47422 8.3553 5.35352 8.17483 5.27118 7.97617C5.18883 7.77752 5.14644 7.56459 5.14644 7.34955C5.14644 7.1345 5.18883 6.92157 5.27118 6.72292C5.35352 6.52426 5.47422 6.34379 5.62636 6.19182C5.77834 6.03967 5.95881 5.91898 6.15746 5.83663C6.35611 5.75428 6.56905 5.71189 6.78409 5.71189C6.99913 5.71189 7.21207 5.75428 7.41072 5.83663C7.60937 5.91898 7.78984 6.03967 7.94182 6.19182L7.99091 6.24091C8.18374 6.42953 8.42865 6.55606 8.69406 6.60419C8.95948 6.65231 9.23322 6.61982 9.48 6.51091H9.54545C9.78745 6.40719 9.99383 6.23498 10.1392 6.01547C10.2846 5.79596 10.3626 5.53873 10.3636 5.27545V5.13636C10.3636 4.70237 10.536 4.28616 10.8429 3.97928C11.1498 3.6724 11.566 3.5 12 3.5C12.434 3.5 12.8502 3.6724 13.1571 3.97928C13.464 4.28616 13.6364 4.70237 13.6364 5.13636V5.21C13.6374 5.47328 13.7154 5.73051 13.8608 5.95002C14.0062 6.16953 14.2126 6.34174 14.4545 6.44545C14.7013 6.55437 14.9751 6.58686 15.2405 6.53873C15.5059 6.49061 15.7508 6.36408 15.9436 6.17545L15.9927 6.12636C16.1447 5.97422 16.3252 5.85352 16.5238 5.77118C16.7225 5.68883 16.9354 5.64644 17.1505 5.64644C17.3655 5.64644 17.5784 5.68883 17.7771 5.77118C17.9757 5.85352 18.1562 5.97422 18.3082 6.12636C18.4603 6.27834 18.581 6.45881 18.6634 6.65746C18.7457 6.85611 18.7881 7.06905 18.7881 7.28409C18.7881 7.49913 18.7457 7.71207 18.6634 7.91072C18.581 8.10937 18.4603 8.28984 18.3082 8.44182L18.2591 8.49091C18.0705 8.68374 17.9439 8.92865 17.8958 9.19406C17.8477 9.45948 17.8802 9.73322 17.9891 9.98V10.0455C18.0928 10.2874 18.265 10.4938 18.4845 10.6392C18.704 10.7846 18.9613 10.8626 19.2245 10.8636H19.3636C19.7976 10.8636 20.2138 11.036 20.5207 11.3429C20.8276 11.6498 21 12.066 21 12.5C21 12.934 20.8276 13.3502 20.5207 13.6571C20.2138 13.964 19.7976 14.1364 19.3636 14.1364H19.29C19.0267 14.1374 18.7695 14.2154 18.55 14.3608C18.3305 14.5062 18.1583 14.7126 18.0545 14.9545V14.9545Z" stroke="black" stroke-opacity="0.7" stroke-width="2" stroke-linecap="round" stroke-linejoin="round"/>
</g>
</svg>
