<svg width="32" height="31" viewBox="0 0 32 31" fill="none" xmlns="http://www.w3.org/2000/svg">
<g id="Briefcase / undefined">
<path id="Vector" d="M13.7822 4.50438H18.2176C18.7425 4.50438 19.168 4.9299 19.168 5.45481V7.67248H12.8318V5.45481C12.8318 4.9299 13.2573 4.50438 13.7822 4.50438ZM10.9309 5.45481V7.67248H8.71326C6.43865 7.67248 4.59473 9.51641 4.59473 11.791V13.6919C4.59473 14.9167 5.58761 15.9095 6.8124 15.9095H13.4654V15.2759C13.4654 14.576 14.0328 14.0087 14.7327 14.0087H17.2671C17.967 14.0087 18.5344 14.576 18.5344 15.2759V15.9095H25.1874C26.4122 15.9095 27.4051 14.9167 27.4051 13.6919V11.791C27.4051 9.51641 25.5611 7.67248 23.2865 7.67248H21.0689V5.45481C21.0689 3.88008 19.7922 2.60352 18.2176 2.60352H13.7822C12.2075 2.60352 10.9309 3.88008 10.9309 5.45481ZM27.4051 17.163C26.765 17.5728 26.0039 17.8104 25.1874 17.8104H18.5344C18.5344 18.5103 17.967 19.0777 17.2671 19.0777H14.7327C14.0328 19.0777 13.4654 18.5103 13.4654 17.8104H6.8124C5.99589 17.8104 5.23487 17.5728 4.59473 17.163V21.2953C4.59473 23.5699 6.43865 25.4139 8.71326 25.4139H23.2865C25.5611 25.4139 27.4051 23.5699 27.4051 21.2953V17.163Z" fill="#1C1C1C"/>
</g>
</svg>
